<svg xmlns="http://www.w3.org/2000/svg" viewBox="0 0 196.13 39.55"><defs><style>.cls-1{fill:#202020;}.cls-2{fill:#0056ff;}.cls-3{fill:#70e696;}.cls-4{fill:#e9ff5c;}</style></defs><title>ml_main-logo</title><g id="Layer_2" data-name="Layer 2"><g id="Layer_1-2" data-name="Layer 1"><path class="cls-1" d="M23.78,13.82v8a1.57,1.57,0,0,1-1.61,1.64,1.59,1.59,0,0,1-1.61-1.64V14.28c0-2.13-1.19-3.47-3.11-3.47a3.21,3.21,0,0,0-3.29,3.32v7.73a1.6,1.6,0,1,1-3.19,0V14.28c0-2.1-1.25-3.47-3.14-3.47a3.22,3.22,0,0,0-3.29,3.47v7.58A1.55,1.55,0,0,1,3,23.5a1.59,1.59,0,0,1-1.61-1.64V9.53A1.58,1.58,0,0,1,3,7.88,1.56,1.56,0,0,1,4.51,9.44,5.93,5.93,0,0,1,8.65,7.88a5,5,0,0,1,4.54,2.35,6.27,6.27,0,0,1,5-2.35C21.65,7.88,23.78,10.17,23.78,13.82Z"/><path class="cls-1" d="M41.54,14.83V15a1.66,1.66,0,0,1-1.82,1.76H30.16A4.6,4.6,0,0,0,35,20.67a5.75,5.75,0,0,0,3.5-1.16,1.53,1.53,0,0,1,.82-.3,1.32,1.32,0,0,1,1.34,1.34,1.53,1.53,0,0,1-.79,1.34,8.18,8.18,0,0,1-5,1.61,7.7,7.7,0,0,1-8-7.79,7.65,7.65,0,0,1,7.7-7.83A6.74,6.74,0,0,1,41.54,14.83Zm-11.32-.58h8.13a3.63,3.63,0,0,0-3.84-3.66A4.37,4.37,0,0,0,30.22,14.25Z"/><path class="cls-1" d="M56.56,14.13v7.76A1.54,1.54,0,0,1,55,23.5a1.56,1.56,0,0,1-1.58-1.61V21.7a6.14,6.14,0,0,1-4.6,1.8c-3.11,0-5.21-1.73-5.21-4.32s2.13-4.26,5.51-4.26h4.23v-1a2.89,2.89,0,0,0-3.19-3.19,4.53,4.53,0,0,0-3.32,1.4,1.69,1.69,0,0,1-1.1.48,1.41,1.41,0,0,1-1.4-1.34A1.89,1.89,0,0,1,45,10a7.53,7.53,0,0,1,5.45-2.1C54.28,7.88,56.56,10.2,56.56,14.13ZM53.33,17.5v-.27H49.5c-1.74,0-2.65.64-2.65,1.83s1,2,2.62,2A3.68,3.68,0,0,0,53.33,17.5Z"/><path class="cls-1" d="M75.22,9.53V21.61c0,4.6-2.83,7.37-7.49,7.37a10.22,10.22,0,0,1-6.49-2.22,1.53,1.53,0,0,1-.6-1.16A1.48,1.48,0,0,1,63,24.44a7.25,7.25,0,0,0,4.54,1.62c2.83,0,4.47-1.55,4.47-4.26V20.73a6.41,6.41,0,0,1-5,2.13,7.14,7.14,0,0,1-7.28-7.49A7.15,7.15,0,0,1,67,7.88a6.25,6.25,0,0,1,5.08,2.23V9.53a1.59,1.59,0,0,1,1.61-1.65A1.57,1.57,0,0,1,75.22,9.53Zm-3.17,5.81a4.27,4.27,0,0,0-4.5-4.59A4.42,4.42,0,0,0,63,15.37a4.47,4.47,0,0,0,4.57,4.69C70.26,20.06,72.05,18.17,72.05,15.34Z"/><path class="cls-1" d="M92.48,13.82v8a1.6,1.6,0,1,1-3.2,0V14.28A3.18,3.18,0,0,0,86,10.81a3.31,3.31,0,0,0-3.41,3.47v7.58A1.55,1.55,0,0,1,81,23.5a1.59,1.59,0,0,1-1.61-1.64V1.64A1.59,1.59,0,0,1,81,0a1.55,1.55,0,0,1,1.58,1.64V9.71a5.65,5.65,0,0,1,4.33-1.83C90.28,7.88,92.48,10.23,92.48,13.82Z"/><path class="cls-1" d="M108.46,14.13v7.76a1.59,1.59,0,1,1-3.17,0V21.7a6.14,6.14,0,0,1-4.6,1.8c-3.1,0-5.2-1.73-5.2-4.32s2.13-4.26,5.51-4.26h4.23v-1a2.9,2.9,0,0,0-3.2-3.19,4.56,4.56,0,0,0-3.32,1.4,1.67,1.67,0,0,1-1.09.48,1.41,1.41,0,0,1-1.4-1.34A1.85,1.85,0,0,1,96.86,10a7.53,7.53,0,0,1,5.45-2.1C106.17,7.88,108.46,10.2,108.46,14.13Zm-3.23,3.37v-.27h-3.84c-1.73,0-2.64.64-2.64,1.83s1,2,2.61,2A3.69,3.69,0,0,0,105.23,17.5Z"/><path class="cls-1" d="M125.55,13.82v8a1.6,1.6,0,1,1-3.2,0V14.25a3.19,3.19,0,0,0-3.25-3.47,3.33,3.33,0,0,0-3.41,3.47v7.61a1.55,1.55,0,0,1-1.59,1.64,1.59,1.59,0,0,1-1.61-1.64V9.53a1.59,1.59,0,1,1,3.17,0A6,6,0,0,1,120,7.88C123.36,7.88,125.55,10.2,125.55,13.82Z"/><path class="cls-1" d="M137.91,21.86V1.64a1.6,1.6,0,1,1,3.2,0V21.86a1.57,1.57,0,0,1-1.59,1.64A1.59,1.59,0,0,1,137.91,21.86Z"/><path class="cls-1" d="M160.14,15.68a7.92,7.92,0,1,1-7.95-7.8A7.83,7.83,0,0,1,160.14,15.68Zm-12.58,0a4.65,4.65,0,1,0,9.29,0,4.65,4.65,0,1,0-9.29,0Z"/><path class="cls-1" d="M176.43,13.82v8a1.6,1.6,0,1,1-3.2,0V14.25A3.19,3.19,0,0,0,170,10.78a3.33,3.33,0,0,0-3.41,3.47v7.61A1.55,1.55,0,0,1,165,23.5a1.59,1.59,0,0,1-1.61-1.64V9.53a1.59,1.59,0,1,1,3.17,0,6,6,0,0,1,4.29-1.65C174.24,7.88,176.43,10.2,176.43,13.82Z"/><path class="cls-1" d="M195.09,9.53V21.61c0,4.6-2.83,7.37-7.49,7.37a10.22,10.22,0,0,1-6.49-2.22,1.55,1.55,0,0,1-.61-1.16,1.49,1.49,0,0,1,2.38-1.16,7.25,7.25,0,0,0,4.54,1.62c2.83,0,4.47-1.55,4.47-4.26V20.73a6.41,6.41,0,0,1-5,2.13,7.14,7.14,0,0,1-7.28-7.49,7.15,7.15,0,0,1,7.28-7.49,6.27,6.27,0,0,1,5.08,2.23V9.53a1.59,1.59,0,0,1,1.61-1.65A1.57,1.57,0,0,1,195.09,9.53Zm-3.17,5.81a4.27,4.27,0,0,0-4.5-4.59,4.42,4.42,0,0,0-4.57,4.62,4.47,4.47,0,0,0,4.57,4.69A4.36,4.36,0,0,0,191.92,15.34Z"/><path class="cls-2" d="M60.5,39.55A5.09,5.09,0,0,1,56.85,38a2.24,2.24,0,0,0-3.45,0,5.11,5.11,0,0,1-7.29,0,2.23,2.23,0,0,0-3.44,0,5.11,5.11,0,0,1-7.29,0,2.23,2.23,0,0,0-3.44,0,5.11,5.11,0,0,1-7.29,0,2.24,2.24,0,0,0-3.45,0,5.11,5.11,0,0,1-7.29,0,2.23,2.23,0,0,0-3.44,0,5.11,5.11,0,0,1-7.29,0,2.27,2.27,0,0,0-1.72-.81,1.47,1.47,0,0,1,0-2.93,5.09,5.09,0,0,1,3.65,1.54,2.22,2.22,0,0,0,3.43,0,5.08,5.08,0,0,1,7.29,0,2.29,2.29,0,0,0,1.73.81,2.26,2.26,0,0,0,1.72-.82,5.11,5.11,0,0,1,7.29,0,2.22,2.22,0,0,0,3.44,0,5.1,5.1,0,0,1,7.3,0,2.26,2.26,0,0,0,1.72.81,2.29,2.29,0,0,0,1.72-.81,5.06,5.06,0,0,1,3.64-1.54A5.13,5.13,0,0,1,48,35.81a2.23,2.23,0,0,0,1.72.82,2.26,2.26,0,0,0,1.72-.82,5.11,5.11,0,0,1,7.29,0,2.23,2.23,0,0,0,3.45,0,5.06,5.06,0,0,1,3.64-1.54,1.47,1.47,0,1,1,0,2.93,2.29,2.29,0,0,0-1.72.81A5.06,5.06,0,0,1,60.5,39.55Z"/><path class="cls-3" d="M124.9,39.55A5.09,5.09,0,0,1,121.25,38a2.29,2.29,0,0,0-1.72-.81,2.26,2.26,0,0,0-1.72.81,5.12,5.12,0,0,1-7.3,0,2.23,2.23,0,0,0-3.44,0,5.11,5.11,0,0,1-7.29,0,2.23,2.23,0,0,0-3.44,0,5.11,5.11,0,0,1-7.29,0,2.24,2.24,0,0,0-3.45,0,5.11,5.11,0,0,1-7.29,0,2.23,2.23,0,0,0-3.44,0,5.11,5.11,0,0,1-7.29,0,2.26,2.26,0,0,0-1.72-.81,1.47,1.47,0,0,1,0-2.93,5.09,5.09,0,0,1,3.65,1.54,2.23,2.23,0,0,0,3.44,0,5.08,5.08,0,0,1,7.29,0,2.22,2.22,0,0,0,3.44,0,5.11,5.11,0,0,1,7.29,0,2.26,2.26,0,0,0,1.72.82,2.29,2.29,0,0,0,1.73-.81,5.08,5.08,0,0,1,7.29,0,2.26,2.26,0,0,0,1.72.81,2.29,2.29,0,0,0,1.72-.81,5.06,5.06,0,0,1,3.64-1.54,5.13,5.13,0,0,1,3.65,1.53,2.21,2.21,0,0,0,3.44,0,5.12,5.12,0,0,1,7.3,0,2.23,2.23,0,0,0,1.72.82,2.29,2.29,0,0,0,1.72-.81,5.09,5.09,0,0,1,3.65-1.54,1.47,1.47,0,0,1,0,2.93,2.29,2.29,0,0,0-1.73.81A5.06,5.06,0,0,1,124.9,39.55Z"/><path class="cls-4" d="M189.3,39.55A5.09,5.09,0,0,1,185.65,38a2.23,2.23,0,0,0-3.44,0,5.12,5.12,0,0,1-7.3,0,2.23,2.23,0,0,0-3.44,0,5.11,5.11,0,0,1-7.29,0,2.23,2.23,0,0,0-3.44,0,5.11,5.11,0,0,1-7.29,0A2.24,2.24,0,0,0,150,38a5.11,5.11,0,0,1-7.29,0,2.23,2.23,0,0,0-3.44,0A5.11,5.11,0,0,1,132,38a2.25,2.25,0,0,0-1.71-.81,1.47,1.47,0,1,1,0-2.93,5.06,5.06,0,0,1,3.64,1.54,2.23,2.23,0,0,0,3.44,0,5.08,5.08,0,0,1,7.29,0,2.22,2.22,0,0,0,3.44,0,5.11,5.11,0,0,1,7.29,0,2.22,2.22,0,0,0,3.45,0,5.1,5.1,0,0,1,7.29,0,2.23,2.23,0,0,0,3.44,0,5.06,5.06,0,0,1,3.64-1.54,5.13,5.13,0,0,1,3.65,1.53,2.21,2.21,0,0,0,3.44,0,5.12,5.12,0,0,1,7.3,0,2.21,2.21,0,0,0,3.44,0,5.13,5.13,0,0,1,3.65-1.53,1.47,1.47,0,0,1,0,2.93A2.26,2.26,0,0,0,193,38,5.09,5.09,0,0,1,189.3,39.55Z"/></g></g></svg>